<mxfile host="Electron" agent="Mozilla/5.0 (Macintosh; Intel Mac OS X 10_15_7) AppleWebKit/537.36 (KHTML, like Gecko) draw.io/24.7.17 Chrome/128.0.6613.36 Electron/32.0.1 Safari/537.36" version="24.7.17">
  <diagram name="Page-1" id="6UTdkY6R5gPTwxEXKi2B">
    <mxGraphModel dx="1026" dy="743" grid="1" gridSize="10" guides="1" tooltips="1" connect="1" arrows="1" fold="1" page="1" pageScale="1" pageWidth="850" pageHeight="1100" math="0" shadow="0">
      <root>
        <mxCell id="0" />
        <mxCell id="1" parent="0" />
        <mxCell id="TzXBHcfrvvCbDAkTCggi-1" value="Dev: Frontend&lt;br&gt;http://localhost:5173" style="rounded=1;whiteSpace=wrap;html=1;" vertex="1" parent="1">
          <mxGeometry x="80" y="90" width="120" height="60" as="geometry" />
        </mxCell>
        <mxCell id="TzXBHcfrvvCbDAkTCggi-8" style="edgeStyle=orthogonalEdgeStyle;rounded=0;orthogonalLoop=1;jettySize=auto;html=1;exitX=1;exitY=0.75;exitDx=0;exitDy=0;entryX=0.308;entryY=-0.033;entryDx=0;entryDy=0;entryPerimeter=0;" edge="1" parent="1" source="TzXBHcfrvvCbDAkTCggi-2" target="TzXBHcfrvvCbDAkTCggi-7">
          <mxGeometry relative="1" as="geometry" />
        </mxCell>
        <mxCell id="TzXBHcfrvvCbDAkTCggi-9" style="edgeStyle=orthogonalEdgeStyle;rounded=0;orthogonalLoop=1;jettySize=auto;html=1;exitX=0.5;exitY=1;exitDx=0;exitDy=0;entryX=0;entryY=0.5;entryDx=0;entryDy=0;startArrow=classic;startFill=1;" edge="1" parent="1" source="TzXBHcfrvvCbDAkTCggi-3" target="TzXBHcfrvvCbDAkTCggi-5">
          <mxGeometry relative="1" as="geometry" />
        </mxCell>
        <mxCell id="TzXBHcfrvvCbDAkTCggi-2" value="Prod: Frontend&lt;br&gt;https://jobs.localhost" style="rounded=1;whiteSpace=wrap;html=1;" vertex="1" parent="1">
          <mxGeometry x="220" y="310" width="120" height="60" as="geometry" />
        </mxCell>
        <mxCell id="TzXBHcfrvvCbDAkTCggi-4" style="edgeStyle=orthogonalEdgeStyle;rounded=0;orthogonalLoop=1;jettySize=auto;html=1;exitX=1;exitY=0.5;exitDx=0;exitDy=0;entryX=0;entryY=0.5;entryDx=0;entryDy=0;" edge="1" parent="1" source="TzXBHcfrvvCbDAkTCggi-3" target="TzXBHcfrvvCbDAkTCggi-2">
          <mxGeometry relative="1" as="geometry" />
        </mxCell>
        <mxCell id="TzXBHcfrvvCbDAkTCggi-3" value="Nginx" style="rounded=1;whiteSpace=wrap;html=1;" vertex="1" parent="1">
          <mxGeometry x="30" y="310" width="120" height="60" as="geometry" />
        </mxCell>
        <mxCell id="TzXBHcfrvvCbDAkTCggi-5" value="PM2: API Server" style="rounded=1;whiteSpace=wrap;html=1;" vertex="1" parent="1">
          <mxGeometry x="220" y="410" width="120" height="60" as="geometry" />
        </mxCell>
        <mxCell id="TzXBHcfrvvCbDAkTCggi-10" style="edgeStyle=orthogonalEdgeStyle;rounded=0;orthogonalLoop=1;jettySize=auto;html=1;exitX=0.75;exitY=0;exitDx=0;exitDy=0;entryX=1;entryY=0.25;entryDx=0;entryDy=0;" edge="1" parent="1" source="TzXBHcfrvvCbDAkTCggi-7" target="TzXBHcfrvvCbDAkTCggi-2">
          <mxGeometry relative="1" as="geometry" />
        </mxCell>
        <mxCell id="TzXBHcfrvvCbDAkTCggi-7" value="PM2: WS Server&lt;div&gt;http://localhost:3092&lt;/div&gt;" style="rounded=1;whiteSpace=wrap;html=1;" vertex="1" parent="1">
          <mxGeometry x="380" y="410" width="120" height="60" as="geometry" />
        </mxCell>
      </root>
    </mxGraphModel>
  </diagram>
</mxfile>
